<?xml version="1.0"?>
<svg xmlns="http://www.w3.org/2000/svg" xmlns:xlink="http://www.w3.org/1999/xlink" version="1.1" id="Capa_1" x="0px" y="0px" viewBox="0 0 430.478 430.478" style="enable-background:new 0 0 430.478 430.478;" xml:space="preserve" width="512px" height="512px" class=""><g transform="matrix(0.817907 0 0 0.817907 39.1935 39.1935)"><path id="XMLID_167_" d="M124.139,278.375c-14.29,0-25.916,11.625-25.916,25.915s11.626,25.915,25.916,25.915  c14.29,0,25.915-11.625,25.915-25.915S138.429,278.375,124.139,278.375z M124.139,312.206c-4.365,0-7.916-3.551-7.916-7.915  s3.551-7.915,7.916-7.915c4.364,0,7.915,3.551,7.915,7.915S128.503,312.206,124.139,312.206z M97.479,66.152H77.323v-18h20.156  V66.152z M150.191,21.408h-20.155v-18h20.155V21.408z M107.027,236.533c0-14.29-11.625-25.916-25.915-25.916  s-25.915,11.626-25.915,25.916c0,14.289,11.625,25.914,25.915,25.914S107.027,250.822,107.027,236.533z M81.112,244.447  c-4.364,0-7.915-3.55-7.915-7.914c0-4.365,3.551-7.916,7.915-7.916s7.915,3.551,7.915,7.916  C89.027,240.897,85.477,244.447,81.112,244.447z M385.073,100.915l-2.702-3.466H48.108l-2.703,3.466  C15.701,139.014,0,184.738,0,233.144c0,40.89,11.518,80.674,33.307,115.053c21.199,33.447,51.132,60.398,86.562,77.938l1.887,0.935  h186.964l1.887-0.935c35.43-17.54,65.363-44.491,86.562-77.938c21.79-34.379,33.308-74.163,33.308-115.053  C430.478,184.738,414.777,139.014,385.073,100.915z M56.958,115.449h316.563c8.809,11.813,16.182,24.393,22.058,37.563  c-50.729,12.165-115.25,18.838-182.593,18.838c-21.505,0-42.904-0.683-63.724-2.031c-2.847-11.22-13.03-19.543-25.122-19.543  c-10.41,0-19.405,6.168-23.523,15.043c-23.906-2.913-46.081-6.718-66.142-11.348C40.418,140.452,47.935,127.548,56.958,115.449z   M132.054,176.192c0,4.364-3.551,7.914-7.915,7.914c-4.365,0-7.916-3.55-7.916-7.914c0-4.365,3.551-7.916,7.916-7.916  C128.503,168.276,132.054,171.827,132.054,176.192z M159.651,401.345c-1.028,3.349-8.059,7.725-18.256,7.725  c-11.053,0-18.387-5.142-18.387-8.543c0-3.4,7.333-8.542,18.387-8.542c10.197,0,17.228,4.376,18.256,7.724  c-0.011,0.272-0.016,0.544-0.016,0.818S159.641,401.073,159.651,401.345z M152.446,367.519c0-3.401,7.333-8.543,18.385-8.543  c11.053,0,18.387,5.142,18.387,8.543c0,3.4-7.333,8.542-18.387,8.542C159.779,376.061,152.446,370.919,152.446,367.519z   M196.021,409.07c-10.197,0-17.228-4.376-18.255-7.725c0.011-0.272,0.016-0.544,0.016-0.818s-0.005-0.546-0.016-0.818  c1.028-3.348,8.059-7.724,18.255-7.724c11.053,0,18.386,5.142,18.386,8.542C214.407,403.928,207.074,409.07,196.021,409.07z   M327.094,395.668c0.755-13.696-6.18-26.138-12.224-36.982c-5.335-9.572-10.374-18.613-10.101-27.326  c0.187-5.954,2.946-11.813,8.433-17.905c24.146-25.183,11.297-48.236,1.914-65.077l-15.724,8.762  c10.077,18.085,15.081,29.043,0.739,43.939l-0.189,0.203c-8.529,9.426-12.835,19.079-13.164,29.513  c-0.429,13.691,6.077,25.365,12.37,36.654c9.871,17.711,14.729,28.095,3.462,41.621h-12.391c8.788-19.796-0.853-37.568-8.913-52.43  c-10.44-19.25-15.65-30.896-1.348-46.372l-13.22-12.217c-23.747,25.698-11.276,48.693-1.255,67.17  c9.843,18.149,15.06,29.58,3.74,43.849h-38.672c1.205-2.67,1.855-5.541,1.855-8.543c0-12.394-11.081-22.551-26.57-25.603  c0.9-2.342,1.381-4.825,1.381-7.405c0-14.884-15.983-26.543-36.387-26.543c-20.403,0-36.385,11.659-36.385,26.543  c0,2.354,0.4,4.628,1.154,6.786c-15.98,1.792-28.215,10.912-30.283,22.672C50.886,360.617,18,299.918,18,233.144  c0-21.486,3.375-42.396,9.949-62.212c21.545,5.085,45.449,9.228,71.26,12.348c3.091,10.854,13.098,18.826,24.931,18.826  c10.146,0,18.949-5.861,23.201-14.374c21.445,1.406,43.494,2.118,65.65,2.118c69.767,0,136.755-7.064,189.203-19.921  c6.794,20.113,10.284,41.366,10.284,63.215C412.478,299.121,380.366,359.169,327.094,395.668z" data-original="#000000" class="active-path" data-old_color=" rgb(0, 0, 0)" fill="#000000"/></g> </svg>
