<?xml version="1.0"?>
<svg xmlns="http://www.w3.org/2000/svg" xmlns:xlink="http://www.w3.org/1999/xlink" version="1.1" id="Capa_1" x="0px" y="0px" viewBox="0 0 495.699 495.699" style="enable-background:new 0 0 495.699 495.699;" xml:space="preserve" width="512px" height="512px" class=""><g transform="matrix(0.817907 0 0 0.817907 45.1316 45.1316)"><path d="M466.083,219.447c-3.25-1.685-5.631-4.661-6.588-8.198c-0.939-3.534-0.352-7.305,1.628-10.391  c10.677-16.667,11.969-38.482,1.356-56.82c-10.59-18.345-30.122-28.135-49.883-27.229c-3.655,0.167-7.207-1.209-9.786-3.798  c-2.601-2.579-3.99-6.142-3.826-9.798c0.907-19.767-8.897-39.31-27.216-49.904c-18.324-10.587-40.178-9.303-56.856,1.389  c-3.083,1.971-6.855,2.557-10.394,1.609c-3.537-0.944-6.501-3.342-8.177-6.584c-9.117-17.567-27.373-29.578-48.527-29.578  c-21.168,0-39.423,12.018-48.52,29.578c-1.696,3.25-4.661,5.629-8.199,6.584c-3.537,0.948-7.309,0.371-10.393-1.601  c-16.661-10.667-38.483-11.942-56.803-1.348c-18.32,10.586-28.126,30.12-27.22,49.881c0.15,3.655-1.223,7.215-3.807,9.798  c-2.598,2.59-6.149,3.963-9.805,3.798c-19.746-0.9-39.287,8.89-49.881,27.229c-10.575,18.319-9.304,40.141,1.374,56.803  c1.979,3.085,2.548,6.855,1.608,10.381c-0.936,3.538-3.335,6.521-6.588,8.209C12.018,228.557,0,246.811,0,267.98  c0,21.025,11.865,39.188,29.229,48.35c18.976,9.996,37.495,22.133,54.21,35.583l73.146,58.902  c14.148,11.386,19.727,30.37,13.977,47.608c-1.32,3.965-0.653,8.333,1.795,11.727c2.431,3.394,6.368,5.403,10.559,5.403h129.869  c4.192,0,8.13-2.009,10.561-5.403c2.446-3.394,3.114-7.762,1.793-11.727c-5.75-17.232-0.171-36.214,13.962-47.602l73.013-58.807  c16.878-13.603,35.146-25.578,54.338-35.685c17.382-9.161,29.249-27.314,29.249-48.35  C495.699,246.811,483.665,228.55,466.083,219.447z M175.576,315.951c-2.784,1.813-6.405,1.3-8.583-1.057l-84.9-91.816  c-6.467-6.982-6.031-17.877,0.942-24.34c6.987-6.461,17.884-6.034,24.336,0.954c0.652,0.7,1.275,1.511,1.776,2.281l68.371,104.711  C179.532,309.782,178.659,313.933,175.576,315.951z M208.059,310.628c-3.338,0.721-6.636-1.196-7.713-4.356l-56.584-164.15  c-3.103-8.979,1.658-18.766,10.645-21.861c8.981-3.092,18.771,1.677,21.855,10.654c0.219,0.627,0.422,1.367,0.553,2.002  l36.372,169.788C213.976,306.305,211.66,309.859,208.059,310.628z M265.013,120.556l-10.492,183.93  c-0.219,3.688-3.368,6.504-7.057,6.294c-3.42-0.2-6.102-2.942-6.285-6.294l-10.492-183.93c-0.537-9.478,6.705-17.599,16.192-18.146  c9.469-0.535,17.599,6.706,18.134,16.186C265.046,119.249,265.046,119.916,265.013,120.556z M295.352,306.272  c-1.191,3.496-4.993,5.347-8.483,4.15c-3.235-1.115-5.059-4.467-4.357-7.717l36.375-169.788  c1.978-9.283,11.129-15.201,20.414-13.214c9.288,1.993,15.186,11.129,13.211,20.415c-0.152,0.652-0.358,1.381-0.57,2.004  L295.352,306.272z M415.397,220.797c-0.52,0.797-1.175,1.602-1.794,2.281l-84.897,91.816c-2.516,2.707-6.755,2.878-9.471,0.372  c-2.432-2.254-2.816-5.89-1.057-8.582l68.37-104.711c5.196-7.969,15.874-10.205,23.833-5.011  C418.347,202.159,420.593,212.836,415.397,220.797z" data-original="#000000" class="active-path" data-old_color=" rgb(0, 0, 0)" fill="#000000"/></g> </svg>
