<?xml version="1.0"?>
<svg xmlns="http://www.w3.org/2000/svg" xmlns:xlink="http://www.w3.org/1999/xlink" version="1.1" id="Capa_1" x="0px" y="0px" viewBox="0 0 512 512" style="enable-background:new 0 0 512 512;" xml:space="preserve" width="512px" height="512px"><g transform="matrix(0.817907 0 0 0.817907 46.6158 46.6158)"><g>
	<g>
		<path d="M491.637,180.331l-60.492-8.79c-54.848-7.97-102.263-42.419-126.791-92.12l-27.053-54.815    c-8.713-17.654-33.888-17.655-42.601,0l-27.053,54.815c-24.529,49.701-71.944,84.149-126.792,92.119l-60.492,8.79    C0.88,183.161-6.899,207.103,7.199,220.845l43.772,42.668c39.688,38.687,57.799,94.426,48.43,149.052l-10.333,60.248    c-3.328,19.404,17.039,34.201,34.464,25.04l54.106-28.445c49.058-25.791,107.665-25.791,156.723,0l54.106,28.445    c17.426,9.162,37.793-5.636,34.465-25.04l-10.333-60.248c-9.369-54.627,8.742-110.366,48.43-149.052l43.772-42.667    C518.899,207.105,511.119,183.162,491.637,180.331z M66.244,217.733c-1.359,4.183-5.853,6.473-10.036,5.114    s-6.473-5.853-5.114-10.036c1.359-4.183,5.853-6.473,10.036-5.114C65.314,209.056,67.604,213.549,66.244,217.733z     M322.931,232.517c12.55-4.078,26.03,2.79,30.108,15.341c4.078,12.55-2.79,26.03-15.341,30.108    c-12.551,4.078-26.03-2.791-30.108-15.341C303.513,250.075,310.381,236.595,322.931,232.517z M256,63.936    c4.4,0,7.967,3.567,7.967,7.967c0,4.4-3.567,7.966-7.967,7.966c-4.4,0-7.967-3.567-7.967-7.967    C248.033,67.502,251.6,63.936,256,63.936z M256,114.758c8.8,0,15.934,7.134,15.934,15.934S264.8,146.625,256,146.625    s-15.934-7.134-15.934-15.934S247.2,114.758,256,114.758z M158.96,247.858c4.078-12.551,17.558-19.419,30.108-15.341    c12.55,4.078,19.419,17.558,15.341,30.108c-4.078,12.55-17.558,19.419-30.108,15.341S154.882,260.408,158.96,247.858z     M109.658,248.588c-8.367-2.719-12.946-11.705-10.227-20.072c2.719-8.367,11.705-12.946,20.072-10.227    s12.946,11.705,10.227,20.072C127.012,246.728,118.025,251.307,109.658,248.588z M140.488,451.93    c-2.586,3.559-7.568,4.348-11.127,1.762s-4.348-7.568-1.762-11.127c2.586-3.559,7.568-4.348,11.127-1.762    S143.074,448.371,140.488,451.93z M181.488,409.051c-5.172,7.119-15.136,8.697-22.255,3.525    c-7.119-5.172-8.697-15.136-3.525-22.255s15.136-8.697,22.255-3.525C185.082,391.969,186.66,401.933,181.488,409.051z     M229.405,356.652c-7.758,10.678-22.704,13.045-33.382,5.287c-10.678-7.758-13.045-22.704-5.287-33.382    c7.758-10.678,22.704-13.045,33.382-5.287C234.796,331.028,237.163,345.974,229.405,356.652z M256,225.149    c-13.2,0-23.9-10.701-23.9-23.901s10.701-23.9,23.9-23.9c13.2,0,23.9,10.701,23.9,23.9S269.2,225.149,256,225.149z     M315.977,361.939c-10.678,7.758-25.624,5.391-33.382-5.287s-5.391-25.624,5.287-33.382s25.624-5.391,33.382,5.287    C329.022,339.235,326.655,354.181,315.977,361.939z M352.767,412.576c-7.119,5.172-17.082,3.594-22.255-3.525    c-5.172-7.119-3.594-17.082,3.525-22.255c7.119-5.172,17.082-3.594,22.255,3.525C361.464,397.44,359.885,407.404,352.767,412.576z     M382.639,453.692c-3.559,2.586-8.541,1.797-11.127-1.762c-2.586-3.56-1.797-8.542,1.762-11.127    c3.559-2.586,8.541-1.797,11.127,1.762C386.988,446.125,386.199,451.106,382.639,453.692z M402.342,248.588    c-8.367,2.719-17.354-1.86-20.072-10.227c-2.719-8.367,1.86-17.354,10.227-20.072c8.367-2.719,17.354,1.86,20.072,10.227    C415.287,236.883,410.708,245.869,402.342,248.588z M455.792,222.846c-4.183,1.359-8.677-0.93-10.036-5.114    c-1.359-4.183,0.93-8.677,5.114-10.036c4.183-1.359,8.677,0.93,10.036,5.114S459.975,221.487,455.792,222.846z" data-original="#000000" class="active-path" data-old_color=" rgb(0, 0, 0)" fill="#000000"/>
	</g>
</g></g> </svg>
