<?xml version="1.0"?>
<svg xmlns="http://www.w3.org/2000/svg" xmlns:xlink="http://www.w3.org/1999/xlink" version="1.1" id="Capa_1" x="0px" y="0px" width="512px" height="512px" viewBox="0 0 79.538 79.538" style="enable-background:new 0 0 79.538 79.538;" xml:space="preserve" class=""><g transform="matrix(0.826169 0 0 0.826169 6.91309 6.91309)"><g>
	<path d="M79.531,43c0.057-0.518-0.254-1.046-1.187-1.651c-0.849-0.554-1.729-1.088-2.583-1.634   c-1.87-1.199-3.837-2.297-5.712-3.591c-5.447-3.78-11.92-5.137-18.383-6.007c-2.65-0.334-5.612-0.197-7.839-1.836   c-1.728-1.261-4.723-5.631-8.006-7.529c-0.567-0.339-3.233-1.685-3.233-1.685s1.527,4.14,1.877,4.973   c0.811,1.918-0.445,3.573-0.971,5.414c-0.339,1.215,2.493,0.948,2.641,2.079c0.212,1.67-4.842,2.258-7.687,2.819   c-4.264,0.834-9.232,2.429-13.492,1.031c-5.02-1.613-8.598-4.816-12.205-8.438C4.428,34.788,9.093,39.31,9.3,40.266   c0.217,1.056-0.536,1.273-1.214,1.962C6.582,43.704,0.021,51.244,0,53.635c1.882-0.289,4.153-1.937,5.808-2.899   c1.843-1.056,8.87-6.266,10.838-7.073c0.45-0.187,5.895-1.786,5.941-1.088c0.081,1.088-0.359,1.326-0.215,1.781   c0.264,0.87,1.681,1.709,2.359,2.315c1.76,1.507,3.744,2.832,4.984,4.847c1.74,2.801,1.817,5.83,2.312,8.953   c1.16-0.13,2.343-2.537,2.985-3.49c0.598-0.901,2.783-4.748,3.612-4.986c0.784-0.238,3.213,1.118,4.085,1.377   c3.335,0.989,6.582,1.579,9.983,1.579c4.091,0.011,14.841,0.301,22.805-5.598c0.881-0.662,2.982-3.185,2.982-3.185   s-0.439-0.673-1.222-0.922C78.304,44.564,79.433,43.833,79.531,43z M72.292,43.368c-0.999,0-1.802-0.793-1.802-1.797   c0-1.005,0.803-1.81,1.802-1.81c1.005,0,1.807,0.789,1.807,1.81C74.099,42.565,73.291,43.368,72.292,43.368z" data-original="#000000" class="active-path" data-old_color=" rgb(0, 0, 0)" fill="#000000"/>
</g></g> </svg>
